<svg width="20" height="18" viewBox="0 0 20 18" fill="none" xmlns="http://www.w3.org/2000/svg">
<path d="M4 1L0.999999 4M0.999999 4L4 7M0.999999 4L5 4C6.32608 4 7.59785 4.52679 8.53553 5.46447C9.47321 6.40215 10 7.67392 10 9C10 9.65661 10.1293 10.3068 10.3806 10.9134C10.6319 11.52 11.0002 12.0712 11.4645 12.5355C11.9288 12.9998 12.48 13.3681 13.0866 13.6194C13.6932 13.8707 14.3434 14 15 14L19 14M4 17L1 14M1 14L4 11M1 14L5 14C6.08211 14.0016 7.13527 13.6505 8 13M19 4L15 4C13.9179 3.99841 12.8647 4.34946 12 5" stroke="black" stroke-opacity="0.6" stroke-width="2" stroke-linecap="round" stroke-linejoin="round"/>
</svg>
