<svg width="32" height="32" viewBox="0 0 32 32" fill="none" xmlns="http://www.w3.org/2000/svg">
<path d="M2 27.0834C2 25.1826 2.75506 23.3598 4.09907 22.0158C5.44308 20.6717 7.26595 19.9167 9.16666 19.9167H23.5C25.4007 19.9167 27.2236 20.6717 28.5676 22.0158C29.9116 23.3598 30.6667 25.1826 30.6667 27.0834C30.6667 28.0337 30.2891 28.9451 29.6171 29.6172C28.9451 30.2892 28.0337 30.6667 27.0833 30.6667H5.58333C4.63297 30.6667 3.72154 30.2892 3.04953 29.6172C2.37753 28.9451 2 28.0337 2 27.0834Z" stroke="black" stroke-opacity="0.6" stroke-width="2.5" stroke-linejoin="round"/>
<path d="M16.3335 12.75C19.302 12.75 21.7085 10.3435 21.7085 7.375C21.7085 4.40647 19.302 2 16.3335 2C13.365 2 10.9585 4.40647 10.9585 7.375C10.9585 10.3435 13.365 12.75 16.3335 12.75Z" stroke="black" stroke-opacity="0.6" stroke-width="2.5"/>
</svg>
