<svg width="21" height="21" viewBox="0 0 21 21" fill="none" xmlns="http://www.w3.org/2000/svg">
<path d="M10.0027 18.25C9.33175 18.2509 8.65983 17.8485 8.46458 17.0428C8.40599 16.8009 8.29113 16.5764 8.12935 16.3873C7.96757 16.1983 7.76343 16.0501 7.53357 15.9549C7.3037 15.8597 7.0546 15.8201 6.80653 15.8393C6.55846 15.8585 6.31844 15.9361 6.106 16.0656C4.69158 16.9273 3.07183 15.3084 3.9335 13.8931C4.06284 13.6807 4.14025 13.4409 4.15944 13.193C4.17863 12.9451 4.13906 12.6961 4.04393 12.4664C3.94881 12.2367 3.80082 12.0326 3.612 11.8709C3.42318 11.7091 3.19885 11.5942 2.95725 11.5354C1.34758 11.1449 1.34758 8.85508 2.95725 8.46458C3.19907 8.40599 3.42363 8.29113 3.61267 8.12935C3.8017 7.96757 3.94987 7.76344 4.0451 7.53357C4.14033 7.3037 4.17995 7.0546 4.16071 6.80653C4.14148 6.55846 4.06394 6.31844 3.93442 6.106C3.07275 4.69158 4.69158 3.07183 6.10692 3.9335C7.02358 4.49083 8.21158 3.99767 8.46458 2.95725C8.85508 1.34758 11.1449 1.34758 11.5354 2.95725C11.594 3.19907 11.7089 3.42363 11.8707 3.61267C12.0324 3.8017 12.2366 3.94987 12.4664 4.0451C12.6963 4.14033 12.9454 4.17995 13.1935 4.16071C13.4415 4.14148 13.6816 4.06394 13.894 3.93442C15.3084 3.07275 16.9282 4.69158 16.0665 6.10692C15.9372 6.31927 15.8597 6.55914 15.8406 6.80704C15.8214 7.05494 15.8609 7.30387 15.9561 7.5336C16.0512 7.76332 16.1992 7.96736 16.388 8.12913C16.5768 8.2909 16.8011 8.40583 17.0427 8.46458C17.8549 8.66167 18.2573 9.34183 18.2509 10.0174" stroke="black" stroke-opacity="0.6" stroke-width="2" stroke-linecap="round" stroke-linejoin="round"/>
<path d="M16.4176 18.25C15.9314 18.25 15.465 18.0568 15.1212 17.713C14.7774 17.3692 14.5842 16.9029 14.5842 16.4167C14.5842 15.9304 14.7774 15.4641 15.1212 15.1203C15.465 14.7765 15.9314 14.5833 16.4176 14.5833M16.4176 18.25C16.9038 18.25 17.3701 18.0568 17.7139 17.713C18.0578 17.3692 18.2509 16.9029 18.2509 16.4167C18.2509 15.9304 18.0578 15.4641 17.7139 15.1203C17.3701 14.7765 16.9038 14.5833 16.4176 14.5833M16.4176 18.25V19.625M16.4176 14.5833V13.2083M19.196 14.8125L18.0053 15.5M14.8308 17.3333L13.6392 18.0208M13.6392 14.8125L14.8308 15.5M18.0053 17.3333L19.1969 18.0208M7.25 10C7.25 10.7293 7.53973 11.4288 8.05546 11.9445C8.57118 12.4603 9.27065 12.75 10 12.75C10.7293 12.75 11.4288 12.4603 11.9445 11.9445C12.4603 11.4288 12.75 10.7293 12.75 10C12.75 9.27065 12.4603 8.57118 11.9445 8.05546C11.4288 7.53973 10.7293 7.25 10 7.25C9.27065 7.25 8.57118 7.53973 8.05546 8.05546C7.53973 8.57118 7.25 9.27065 7.25 10Z" stroke="black" stroke-opacity="0.6" stroke-width="2" stroke-linecap="round" stroke-linejoin="round"/>
</svg>
