<svg width="43" height="42" viewBox="0 0 43 42" fill="none" xmlns="http://www.w3.org/2000/svg">
<path d="M10.4141 23.8914C10.5961 23.8914 10.799 23.8641 11.023 23.8094C11.247 23.7547 11.4709 23.6795 11.6949 23.5838C11.9188 23.4881 12.1428 23.3992 12.3668 23.3172C12.5907 23.2352 12.7937 23.1532 12.9756 23.0711L12.6397 23.0301C12.5277 23.0164 12.4087 23.0096 12.2828 23.0096C12.0448 23.0096 11.8279 23.0438 11.6319 23.1121C11.4359 23.1805 11.254 23.2694 11.086 23.3787C10.918 23.4881 10.7501 23.5701 10.5821 23.6248C10.4141 23.6795 10.2601 23.7205 10.1202 23.7479C9.9802 23.7479 9.85422 23.7205 9.74224 23.6658C9.63026 23.6112 9.51828 23.5496 9.4063 23.4813C9.4063 23.536 9.35731 23.5633 9.25933 23.5633C9.35731 23.659 9.53928 23.7342 9.80523 23.7889C10.0712 23.8436 10.2741 23.8778 10.4141 23.8914ZM13.2486 22.9686C13.8225 22.9686 14.3474 22.8729 14.8233 22.6815C14.6273 22.6131 14.4314 22.5584 14.2354 22.5174C14.0394 22.4764 13.8365 22.4491 13.6265 22.4354C13.3466 22.4354 13.0946 22.4627 12.8707 22.5174C12.9406 22.6268 13.0106 22.6951 13.0806 22.7225C13.1506 22.7498 13.2066 22.8319 13.2486 22.9686ZM21.5001 41.9998C23.4737 41.9998 25.3703 41.7469 27.19 41.2411C29.0097 40.7352 30.7173 40.0311 32.3131 39.1287C33.9088 38.2264 35.3645 37.1258 36.6802 35.827C37.996 34.5282 39.1158 33.1131 40.0396 31.5819C40.9634 30.0506 41.6913 28.3826 42.2232 26.578C42.7551 24.7733 43.0141 22.9139 43.0001 20.9998C43.0001 19.0721 42.7411 17.2196 42.2232 15.4422C41.7053 13.6649 40.9844 11.9969 40.0606 10.4383C39.1368 8.87971 38.01 7.45784 36.6802 6.17268C35.3505 4.88752 33.9018 3.79377 32.334 2.89143C30.7663 1.98908 29.0587 1.27814 27.211 0.758614C25.3633 0.239082 23.4597 -0.0138474 21.5001 -0.000175476C19.5264 -0.000175476 17.6298 0.252754 15.8101 0.758614C13.9905 1.26447 12.2828 1.96857 10.6871 2.87092C9.09136 3.77327 7.63563 4.87385 6.31988 6.17268C5.00412 7.47151 3.88433 8.88655 2.9605 10.4178C2.03667 11.949 1.30881 13.617 0.776906 15.4217C0.245005 17.2264 -0.0139473 19.0858 5.00804e-05 20.9998C5.00804e-05 22.9276 0.259002 24.7801 0.776906 26.5575C1.29481 28.3348 2.01568 30.0028 2.9395 31.5614C3.86333 33.12 4.99012 34.5418 6.31988 35.827C7.64963 37.1121 9.09836 38.2059 10.6661 39.1082C12.2338 40.0106 13.9415 40.7215 15.7891 41.2411C17.6368 41.7606 19.5404 42.0135 21.5001 41.9998ZM37.4991 30.618C37.3031 30.9188 37.1072 31.2059 36.9112 31.4793C36.7152 31.7528 36.5123 32.033 36.3023 32.3201C36.2743 32.1971 36.2393 32.1082 36.1973 32.0535C36.1553 31.9989 36.1273 31.8758 36.1133 31.6844C36.1133 31.5614 36.1623 31.4451 36.2603 31.3358C36.3583 31.2264 36.4843 31.117 36.6382 31.0076C36.7922 30.8983 36.9462 30.8162 37.1002 30.7616C37.2541 30.7069 37.3871 30.659 37.4991 30.618ZM36.0504 32.6278C36.0504 32.5184 36.0294 32.4432 35.9874 32.4022H36.1133C36.1693 32.4022 36.2113 32.3953 36.2393 32.3817L36.0504 32.6278ZM21.5001 2.62482C23.0958 2.62482 24.6565 2.82307 26.1822 3.21955C27.7079 3.61604 29.1496 4.17659 30.5074 4.9012C31.8651 5.6258 33.1249 6.51448 34.2867 7.56721C35.4485 8.61995 36.4633 9.79573 37.3311 11.0946C37.1492 11.5047 36.9742 11.9217 36.8062 12.3455C36.6382 12.7694 36.5543 13.2069 36.5543 13.658C36.5543 14.1502 36.5753 14.5467 36.6173 14.8475C36.6592 15.1483 36.7082 15.4149 36.7642 15.6473C36.8202 15.8797 36.8482 16.078 36.8482 16.242C36.8482 16.4061 36.8272 16.618 36.7852 16.8778C36.7432 17.1375 36.6243 17.4178 36.4283 17.7186C36.2323 18.0194 35.9734 18.4432 35.6514 18.9901C35.6654 19.0858 35.6864 19.2157 35.7144 19.3797C35.7424 19.5438 35.7704 19.7147 35.7984 19.8924C35.8264 20.0701 35.8334 20.2342 35.8194 20.3846C35.8054 20.535 35.7704 20.6649 35.7144 20.7742C35.3505 20.8153 34.9726 20.8905 34.5806 20.9998C34.1887 21.1092 33.8388 21.2733 33.5308 21.492L33.6568 21.5946C33.4748 21.5535 33.2929 21.4989 33.1109 21.4305C32.9289 21.3621 32.754 21.2869 32.586 21.2049C32.418 21.1229 32.2361 21.0682 32.0401 21.0408C31.8441 21.0135 31.6552 20.9862 31.4732 20.9588L31.1373 20.9998L31.2003 21.1434C31.0043 21.0887 30.7943 21.0203 30.5704 20.9383C30.3464 20.8563 30.1295 20.8153 29.9195 20.8153C29.7795 20.8153 29.5766 20.8631 29.3106 20.9588C29.0447 21.0545 28.7787 21.1707 28.5128 21.3074C28.2468 21.4442 28.0089 21.5946 27.7989 21.7586C27.5889 21.9227 27.4839 22.0799 27.4839 22.2303L27.5259 22.2918C27.456 22.3739 27.365 22.4491 27.253 22.5174C27.141 22.5858 27.036 22.6541 26.938 22.7225C26.8401 22.7908 26.7491 22.866 26.6651 22.9481C26.5811 23.0301 26.5461 23.1258 26.5601 23.2352L26.7911 23.4198L26.3082 23.4813L26.1402 24.0965C26.1682 24.0282 26.2312 24.0008 26.3292 24.0145C26.4271 24.0282 26.5041 24.0555 26.5601 24.0965L25.8043 24.4862L26.3292 25.7987C26.1332 26.5096 26.0842 27.0565 26.1822 27.4393C26.2802 27.8221 26.4691 28.1366 26.7491 28.3826C27.029 28.6287 27.337 28.8748 27.6729 29.1209C28.0089 29.367 28.3518 29.702 28.7017 30.1258L28.6387 30.3719L30.0245 32.0125L30.3394 32.0535C30.7313 32.0535 31.1723 32.0672 31.6622 32.0946C32.1521 32.1219 32.649 32.1698 33.1529 32.2381C33.6568 32.3065 34.1537 32.3748 34.6436 32.4432C35.1335 32.5116 35.5814 32.6004 35.9874 32.7098C35.5395 33.2293 35.0705 33.7215 34.5806 34.1864C34.0907 34.6512 33.5658 35.0955 33.0059 35.5194C32.852 35.4647 32.663 35.3895 32.439 35.2938C32.2151 35.1981 31.9911 35.075 31.7672 34.9246C31.5432 34.7743 31.3682 34.6102 31.2423 34.4325C31.1163 34.2547 31.0393 34.0701 31.0113 33.8787L31.1373 33.4891C30.8853 33.0926 30.6054 32.8465 30.2974 32.7508C29.9895 32.6551 29.6745 32.6004 29.3526 32.5868C29.0307 32.5731 28.6947 32.5731 28.3448 32.5868C27.9949 32.6004 27.6589 32.5389 27.337 32.4022L27.001 33.0994L27.316 34.2889L26.959 34.8016L30.5914 35.909C30.4374 36.2918 30.1854 36.5789 29.8355 36.7703C29.4856 36.9618 29.1006 37.0575 28.6807 37.0575V37.2625L29.8565 37.4471C28.5548 38.076 27.204 38.5545 25.8043 38.8827C24.4045 39.2108 22.9698 39.3748 21.5001 39.3748C20.2823 39.3748 19.0785 39.2586 17.8887 39.0262C16.6989 38.7938 15.5512 38.4588 14.4454 38.0213C13.3396 37.5838 12.2688 37.0369 11.233 36.3807C10.1972 35.7244 9.25233 34.9862 8.39849 34.1659C8.76242 34.1659 9.04237 34.077 9.23834 33.8993C9.4343 33.7215 9.61627 33.5233 9.78423 33.3045C9.9522 33.0858 10.1272 32.8875 10.3091 32.7098C10.4911 32.5321 10.7361 32.4364 11.044 32.4227L11.3799 32.6688L11.3379 33.12L12.0308 34.0838L11.4849 35.6014C11.5549 35.6424 11.6599 35.7108 11.7999 35.8065C11.9398 35.9022 12.0588 35.95 12.1568 35.95C12.5767 35.95 12.8987 35.9295 13.1226 35.8885C13.3466 35.8475 13.5425 35.7723 13.7105 35.6629C13.8785 35.5535 14.0254 35.3963 14.1514 35.1912C14.2774 34.9862 14.4734 34.7264 14.7393 34.4119L15.4952 34.9862C15.6351 34.9315 15.8591 34.8426 16.167 34.7196C16.475 34.5965 16.7899 34.4461 17.1119 34.2684C17.4338 34.0907 17.7068 33.9061 17.9307 33.7147C18.1547 33.5233 18.2737 33.3455 18.2877 33.1815C18.2877 32.9764 18.2107 32.8123 18.0567 32.6893C17.9027 32.5662 17.6998 32.4637 17.4478 32.3817C17.1959 32.2996 16.9369 32.2381 16.671 32.1971C16.405 32.1561 16.1391 32.1014 15.8731 32.033C15.6072 31.9647 15.4042 31.8963 15.2642 31.828C15.1242 31.7596 15.0403 31.6434 15.0123 31.4793L16.23 31.0897C15.9501 30.8573 15.6491 30.6453 15.3272 30.4539C15.0053 30.2625 14.6693 30.0848 14.3194 29.9207L14.4034 29.5721L12.4717 28.8338V28.2596L12.3248 28.1981L12.4297 28.9159L12.3458 28.9364C12.2478 28.9364 12.1918 28.9159 12.1778 28.8748C12.1638 28.8338 12.1568 28.786 12.1568 28.7313C12.1568 28.6766 12.1708 28.6219 12.1988 28.5672C12.2268 28.5125 12.2338 28.4715 12.2198 28.4442L11.9468 28.5877L11.9888 28.5057C11.9888 28.4647 12.0098 28.4032 12.0518 28.3211C12.0938 28.2391 12.1498 28.1639 12.2198 28.0955C12.2898 28.0272 12.3458 27.9588 12.3878 27.8905C12.4297 27.8221 12.4577 27.7879 12.4717 27.7879C12.4717 27.7469 12.4437 27.7059 12.3878 27.6649C12.3318 27.6239 12.2618 27.5965 12.1778 27.5828C12.0938 27.5692 12.0378 27.5487 12.0098 27.5213C11.9818 27.494 11.9818 27.4871 12.0098 27.5008C12.2058 27.5008 12.2478 27.4871 12.1358 27.4598C12.0238 27.4325 11.8489 27.3641 11.6109 27.2547C11.3729 27.1453 11.156 26.9881 10.96 26.783C10.7641 26.578 10.6521 26.2772 10.6241 25.8807C10.6241 25.6483 10.6311 25.4227 10.6451 25.2039C10.6591 24.9852 10.6521 24.7596 10.6241 24.5272C10.4281 25.0467 10.1342 25.4432 9.74224 25.7166C9.35031 25.9901 8.8744 26.1268 8.31451 26.1268L7.41167 26.0448L7.85259 25.7576C7.61464 25.785 7.36968 25.8123 7.11773 25.8397C6.86578 25.867 6.60682 25.8739 6.34087 25.8602C6.07492 25.8465 5.83697 25.7918 5.62701 25.6961C5.41704 25.6004 5.20708 25.4569 4.99712 25.2655L4.87115 24.3426C4.87115 23.9051 4.96913 23.5496 5.16509 23.2762C5.36105 23.0028 5.70399 22.8592 6.1939 22.8455C6.61382 22.8455 7.02675 22.9071 7.43267 23.0301C7.83859 23.1532 8.23752 23.2967 8.62945 23.4608C8.50347 23.16 8.3635 22.8729 8.20953 22.5994C8.05555 22.326 7.94358 22.0252 7.87359 21.6971L8.14654 21.5741C8.48248 21.7928 8.79042 21.827 9.07037 21.6766C9.35031 21.5262 9.62326 21.3074 9.88921 21.0203C10.1552 20.7332 10.4281 20.4393 10.7081 20.1385C10.988 19.8377 11.289 19.619 11.6109 19.4823L10.897 19.1131L9.21734 20.036C9.23134 20.0086 9.24533 19.9471 9.25933 19.8514C9.27333 19.7557 9.26633 19.7352 9.23834 19.7899L8.48248 21.0408C8.03456 21.0545 7.55865 21.1229 7.05474 21.2459C6.55083 21.369 6.03993 21.533 5.52203 21.7381C5.00412 21.9432 4.52121 22.1688 4.07329 22.4149C3.62538 22.661 3.21245 22.9207 2.83452 23.1942L2.68755 20.9998C2.68755 19.3319 2.91851 17.7049 3.38042 16.119C3.84234 14.533 4.49322 13.0428 5.33306 11.6483C6.1729 10.2537 7.20171 8.98225 8.41949 7.83381C9.63726 6.68538 10.988 5.70784 12.4717 4.9012C12.4017 5.1883 12.3947 5.47541 12.4507 5.76252C12.5067 6.04963 12.5767 6.33674 12.6607 6.62385C12.7447 6.91096 12.8357 7.19807 12.9336 7.48518C13.0316 7.77229 13.0806 8.06623 13.0806 8.36702C13.0806 8.80452 13.0106 9.26252 12.8707 9.74104C12.7307 10.2196 12.5627 10.7049 12.3668 11.1971C12.1708 11.6893 11.9538 12.1746 11.7159 12.6532C11.4779 13.1317 11.289 13.5828 11.149 14.0067C11.009 14.4305 10.897 14.827 10.813 15.1961C10.7291 15.5653 10.7711 15.8865 10.939 16.16L10.6241 16.3035C10.7081 16.4949 10.82 16.6795 10.96 16.8573C11.1 17.035 11.247 17.2127 11.4009 17.3905C11.5549 17.5682 11.6739 17.7596 11.7579 17.9647C11.8419 18.1698 11.8908 18.3748 11.9048 18.5799C11.9048 18.7166 11.8768 18.8602 11.8209 19.0106C11.7649 19.161 11.7159 19.3045 11.6739 19.4412L12.1148 19.3387C12.3528 19.8719 12.6747 20.2342 13.0806 20.4256C13.4865 20.617 13.9975 20.7196 14.6133 20.7332C14.6833 20.7332 14.8303 20.7059 15.0543 20.6512C15.2782 20.5965 15.5162 20.5213 15.7681 20.4256C16.0201 20.3299 16.258 20.2547 16.482 20.2C16.7059 20.1453 16.8739 20.0907 16.9859 20.036C16.9859 19.9403 17.0419 19.8787 17.1539 19.8514C17.2658 19.8241 17.3288 19.7762 17.3428 19.7078L17.3008 19.5438C17.3428 19.5301 17.4408 19.4823 17.5948 19.4002C17.7488 19.3182 17.9167 19.2157 18.0987 19.0926C18.2807 18.9696 18.4416 18.8602 18.5816 18.7645C18.7216 18.6688 18.8196 18.5936 18.8755 18.5389C19.1275 18.5389 19.4704 18.4569 19.9044 18.2928C20.3383 18.1287 20.8142 17.9237 21.3321 17.6776C21.85 17.4315 22.3609 17.1375 22.8648 16.7957C23.3687 16.4539 23.8446 16.1121 24.2925 15.7703C24.7405 15.4285 25.0834 15.0867 25.3214 14.7449C25.5593 14.4032 25.6993 14.1024 25.7413 13.8426L25.0274 13.1043C25.0834 12.4071 25.0344 11.8739 24.8804 11.5047C24.7265 11.1356 24.4885 10.828 24.1666 10.5819C23.8446 10.3358 23.4737 10.1307 23.0538 9.96663C22.6338 9.80256 22.1789 9.57014 21.689 9.26936C21.689 8.99592 21.619 8.70198 21.4791 8.38752C21.3391 8.07307 21.1641 7.77229 20.9542 7.48518C20.7442 7.19807 20.4922 6.95881 20.1983 6.76741C19.9044 6.576 19.6104 6.4803 19.3165 6.4803L18.4346 7.13655C18.4626 7.1092 18.4626 7.06135 18.4346 6.99299C18.4066 6.92463 18.3716 6.91096 18.3296 6.95198C18.4696 6.69221 18.5046 6.39143 18.4346 6.04963C18.3646 5.70784 18.2457 5.3592 18.0777 5.00373C17.9097 4.64827 17.7208 4.3133 17.5108 3.99885C17.3008 3.6844 17.1119 3.4178 16.9439 3.19904C17.6998 3.00764 18.4556 2.86408 19.2115 2.76838C19.9673 2.67268 20.7302 2.62482 21.5001 2.62482Z" fill="white"/>
</svg>
